<svg id="visual" viewBox="0 0 900 600" width="900" height="600" xmlns="http://www.w3.org/2000/svg" xmlns:xlink="http://www.w3.org/1999/xlink" version="1.1"><rect x="0" y="0" width="900" height="600" fill="#002233"></rect><path d="M0 457L21.5 447.8C43 438.7 86 420.3 128.8 411C171.7 401.7 214.3 401.3 257.2 417.5C300 433.7 343 466.3 385.8 462.5C428.7 458.7 471.3 418.3 514.2 399C557 379.7 600 381.3 642.8 397.5C685.7 413.7 728.3 444.3 771.2 467.5C814 490.7 857 506.3 878.5 514.2L900 522L900 601L878.5 601C857 601 814 601 771.2 601C728.3 601 685.7 601 642.8 601C600 601 557 601 514.2 601C471.3 601 428.7 601 385.8 601C343 601 300 601 257.2 601C214.3 601 171.7 601 128.8 601C86 601 43 601 21.5 601L0 601Z" fill="#0066FF" stroke-linecap="round" stroke-linejoin="miter"></path></svg>